<?xml version="1.0" encoding="utf-8"?>
<!DOCTYPE svg PUBLIC "-//W3C//DTD SVG 1.1//EN" "http://www.w3.org/Graphics/SVG/1.1/DTD/svg11.dtd">
<svg version="1.1" xmlns="http://www.w3.org/2000/svg" xmlns:xlink="http://www.w3.org/1999/xlink" x="0px" y="0px" width="256px"
	 height="256px" viewBox="0 0 256 256" enable-background="new 0 0 256 256" xml:space="preserve">
<g>
	<rect fill="#34495E" width="256" height="256"/>
	<path fill-rule="evenodd" clip-rule="evenodd" fill="#39B983" d="M62.095,151.405H34.737V221H48.56v-18.527h11.903
		c7.775,0,9.887-4.032,9.887-9.311v-33.31C70.35,154.765,67.567,151.405,62.095,151.405z M56.815,189.514
		c0,1.056-0.192,1.44-1.344,1.44H48.56v-27.358h7.007c0.96,0,1.248,0.48,1.248,1.344V189.514z M90.127,151.405H75.824V221h25.918
		l2.4-12.959H90.127V151.405z M119.119,151.405L106.544,221h14.015l1.248-8.639h9.503l1.248,8.639h14.015l-12.575-69.595H119.119z
		 M123.343,201.321l3.264-24.67l3.168,24.67H123.343z M152.144,151.405l-3.648,12.959h9.311V221h14.207v-56.636h9.311
		l-3.456-12.959H152.144z M211.854,151.405h-17.279c-6.528,0-9.407,3.552-9.407,9.023v50.684c0,5.28,2.208,9.887,9.983,9.887
		h16.127c7.775,0,9.983-4.608,9.983-9.887v-50.684C221.261,154.957,218.381,151.405,211.854,151.405z M207.15,207.369
		c0,1.056-0.192,1.44-1.344,1.44h-5.28c-1.152,0-1.344-0.384-1.344-1.44V164.94c0-0.864,0.288-1.344,1.248-1.344h5.472
		c0.96,0,1.248,0.48,1.248,1.344V207.369z"/>
</g>
</svg>
